<?xml version="1.0" standalone="no"?>
<!DOCTYPE svg PUBLIC "-//W3C//DTD SVG 20010904//EN"
 "http://www.w3.org/TR/2001/REC-SVG-20010904/DTD/svg10.dtd">
<svg version="1.0" xmlns="http://www.w3.org/2000/svg"
 width="512.000000pt" height="512.000000pt" viewBox="0 0 512.000000 512.000000"
 preserveAspectRatio="xMidYMid meet">

<g transform="translate(0.000000,512.000000) scale(0.100000,-0.100000)"
fill="#000000" stroke="none">
<path d="M2160 5110 c-122 -15 -277 -49 -395 -88 -125 -40 -372 -162 -490
-242 -625 -420 -1065 -1145 -1196 -1970 -26 -165 -36 -493 -20 -655 58 -572
286 -1058 677 -1449 302 -301 692 -525 1090 -625 400 -101 787 -106 1194 -17
688 151 1302 566 1670 1126 80 122 197 363 248 510 87 253 122 456 129 755 6
243 -8 406 -51 615 -86 412 -266 803 -518 1128 -97 124 -282 314 -387 397
-278 219 -615 350 -1076 419 -55 9 -143 27 -195 41 -52 14 -135 33 -185 41
-109 18 -392 26 -495 14z m160 -405 c336 -7 519 -21 599 -47 42 -14 77 -18
105 -15 85 12 402 -75 586 -160 578 -268 1015 -971 1101 -1771 19 -177 7 -477
-25 -627 -61 -290 -181 -554 -359 -791 -541 -720 -1508 -1081 -2355 -879 -602
144 -1129 548 -1385 1060 -194 388 -236 897 -120 1450 106 509 356 973 705
1310 249 241 489 381 808 472 19 6 46 9 60 7 14 -2 140 -6 280 -9z"/>
<path d="M1775 3176 c-71 -32 -107 -93 -107 -181 0 -118 74 -195 188 -195 59
0 103 19 141 63 84 96 49 265 -64 313 -41 18 -119 17 -158 0z"/>
<path d="M3135 3155 c-47 -26 -73 -54 -91 -101 -23 -62 -15 -141 20 -194 70
-106 242 -106 313 1 24 37 28 52 28 113 -1 83 -17 122 -71 163 -30 22 -49 28
-103 31 -47 2 -75 -2 -96 -13z"/>
<path d="M1545 2161 c-47 -22 -99 -74 -114 -114 -16 -41 -13 -104 5 -143 26
-55 212 -208 359 -296 534 -318 1135 -296 1613 59 92 69 209 179 228 214 20
40 18 123 -5 167 -37 73 -102 112 -184 112 -62 0 -95 -18 -189 -105 -31 -29
-88 -74 -127 -100 -419 -278 -894 -231 -1326 131 -44 37 -94 73 -112 80 -44
19 -100 17 -148 -5z"/>
</g>
</svg>
